<svg width="17" height="16" viewBox="0 0 17 16" fill="none" xmlns="http://www.w3.org/2000/svg">
<path d="M8.24432 8.62125C8.26095 8.62125 8.27759 8.62125 8.29755 8.62125C8.3042 8.62125 8.31086 8.62125 8.31751 8.62125C8.32749 8.62125 8.3408 8.62125 8.35078 8.62125C9.32563 8.60468 10.1142 8.26341 10.6964 7.61069C11.9773 6.17271 11.7644 3.7076 11.7411 3.47235C11.6579 1.70636 10.8195 0.861462 10.1275 0.467178C9.61176 0.172292 9.00955 0.0132533 8.33748 0H8.31419C8.31086 0 8.3042 0 8.30088 0H8.28091C7.9116 0 7.18629 0.0596397 6.49092 0.453924C5.79223 0.848209 4.94048 1.6931 4.85731 3.47235C4.83402 3.7076 4.62108 6.17271 5.90202 7.61069C6.48094 8.26341 7.26947 8.60468 8.24432 8.62125ZM5.74565 3.55519C5.74565 3.54525 5.74897 3.53531 5.74897 3.52868C5.85877 1.15303 7.55227 0.897909 8.27759 0.897909H8.2909C8.29755 0.897909 8.30753 0.897909 8.31751 0.897909C9.21584 0.917788 10.743 1.28225 10.8461 3.52868C10.8461 3.53862 10.8461 3.54856 10.8495 3.55519C10.8528 3.57838 11.0857 5.83144 10.0277 7.0176C9.60844 7.48809 9.04948 7.72003 8.31419 7.72665C8.30753 7.72665 8.3042 7.72665 8.29755 7.72665C8.2909 7.72665 8.28757 7.72665 8.28091 7.72665C7.54895 7.72003 6.98666 7.48809 6.57077 7.0176C5.51608 5.83806 5.74232 3.57507 5.74565 3.55519Z" fill="white"/>
<path d="M15.1281 12.7099C15.1281 12.7066 15.1281 12.7033 15.1281 12.7C15.1281 12.6735 15.1248 12.647 15.1248 12.6171C15.1048 11.9611 15.0616 10.427 13.6176 9.93666C13.6076 9.93334 13.5943 9.93003 13.5843 9.92672C12.0838 9.54569 10.8361 8.68422 10.8228 8.67428C10.6199 8.53181 10.3404 8.58151 10.1973 8.78362C10.0542 8.98574 10.1041 9.26405 10.3071 9.40653C10.3637 9.44629 11.6879 10.3641 13.3448 10.7882C14.12 11.0632 14.2065 11.8882 14.2298 12.6436C14.2298 12.6735 14.2298 12.7 14.2331 12.7265C14.2364 13.0247 14.2165 13.4852 14.1632 13.7503C13.6242 14.0551 11.5115 15.1087 8.29752 15.1087C5.09683 15.1087 2.9708 14.0518 2.42848 13.747C2.37524 13.4819 2.35195 13.0214 2.35861 12.7232C2.35861 12.6967 2.36194 12.6701 2.36194 12.6403C2.38523 11.8849 2.47173 11.0599 3.24695 10.7849C4.90386 10.3608 6.22805 9.43966 6.28461 9.40321C6.48757 9.26074 6.53747 8.98242 6.39441 8.78031C6.25134 8.5782 5.97186 8.5285 5.76891 8.67097C5.7556 8.68091 4.51458 9.54237 3.0074 9.9234C2.99409 9.92672 2.98411 9.93003 2.97413 9.93334C1.53016 10.427 1.4869 11.9611 1.46694 12.6138C1.46694 12.6436 1.46694 12.6701 1.46361 12.6967C1.46361 12.7 1.46361 12.7033 1.46361 12.7066C1.46029 12.8789 1.45696 13.7635 1.6333 14.2075C1.66657 14.2937 1.72646 14.3666 1.80631 14.4163C1.90612 14.4825 4.29832 16 8.30085 16C12.3034 16 14.6956 14.4792 14.7954 14.4163C14.8719 14.3666 14.9351 14.2937 14.9684 14.2075C15.1348 13.7669 15.1314 12.8822 15.1281 12.7099Z" fill="white"/>
</svg>
