<svg width="18" height="19" viewBox="0 0 18 19" fill="none" xmlns="http://www.w3.org/2000/svg">
<g clip-path="url(#clip0)">
<path d="M17.7304 11.9032C16.5291 16.7206 11.6448 19.6526 6.82238 18.4503C2 17.2481 -0.932833 12.3698 0.270377 7.55199C1.47359 2.73415 6.35546 -0.199223 11.1768 1.00319C15.9981 2.20561 18.9336 7.08416 17.7304 11.9032Z" fill="#F4BA47"/>
<path d="M12.969 8.44467C13.1479 7.24792 12.236 6.60454 10.989 6.17538L11.394 4.55432L10.4061 4.30844L10.0116 5.88687C9.7522 5.8223 9.48562 5.76096 9.22066 5.70089L9.61666 4.11203L8.62982 3.86615L8.22599 5.48657L6.23411 4.99356L5.97132 6.04767C5.97132 6.04767 6.70409 6.21549 6.68861 6.22592C7.08857 6.32574 7.16111 6.59015 7.14887 6.79987L6.04061 11.2408C5.99165 11.3622 5.86764 11.5442 5.5881 11.4746C5.598 11.489 4.87026 11.2948 4.87026 11.2948L4.37994 12.426L6.36893 12.9279L5.96016 14.5678L6.94655 14.8137L7.35155 13.1914C7.62155 13.2644 7.88255 13.3318 8.13833 13.3953L7.73495 15.0101L8.72261 15.256L9.13138 13.6192C10.8155 13.9375 12.082 13.8091 12.6144 12.2882C13.0439 11.0628 12.5933 10.3559 11.7072 9.89476C12.3525 9.74547 12.8385 9.32152 12.9682 8.4453L12.969 8.44467ZM10.7118 11.6066C10.4058 12.832 8.34164 12.1698 7.67186 12.0034L8.2142 9.83109C8.88362 9.998 11.0302 10.3286 10.7121 11.6065L10.7118 11.6066ZM11.0181 8.42731C10.7397 9.54249 9.02096 8.97591 8.46314 8.83687L8.95418 6.86607C9.51217 7.00528 11.3078 7.26447 11.0174 8.42722" fill="white"/>
</g>
<defs>
<clipPath id="clip0">
<rect width="18" height="17.9868" fill="white" transform="translate(0 0.732574)"/>
</clipPath>
</defs>
</svg>
