<svg width="7" height="12" viewBox="0 0 7 12" fill="none" xmlns="http://www.w3.org/2000/svg">
<path d="M6.04901 0.0024968L4.54136 0C2.84756 0 1.75295 1.15914 1.75295 2.95322V4.31485H0.237065C0.106074 4.31485 0 4.42446 0 4.55966V6.53251C0 6.66771 0.106195 6.77719 0.237065 6.77719H1.75295V11.7553C1.75295 11.8905 1.85902 12 1.99001 12H3.96781C4.0988 12 4.20487 11.8904 4.20487 11.7553V6.77719H5.97729C6.10828 6.77719 6.21435 6.66771 6.21435 6.53251L6.21508 4.55966C6.21508 4.49474 6.19004 4.43257 6.14565 4.38663C6.10126 4.34069 6.04079 4.31485 5.97789 4.31485H4.20487V3.16058C4.20487 2.60579 4.33296 2.32415 5.03314 2.32415L6.04877 2.32377C6.17964 2.32377 6.28571 2.21416 6.28571 2.07909V0.247183C6.28571 0.112231 6.17976 0.00274648 6.04901 0.0024968Z" fill="#848E8C"/>
</svg>
