<svg width="163" height="42" viewBox="0 0 163 42" fill="none" xmlns="http://www.w3.org/2000/svg">
<g clip-path="url(#clip0)">
<path d="M33 1H1V33H33V1Z" stroke="#4673B6" stroke-width="2"/>
<path d="M41 9H9V41H41V9Z" stroke="#4673B6" stroke-width="2"/>
<path d="M37 5H5V37H37V5Z" stroke="#4673B6" stroke-width="2"/>
<path d="M32.8059 31.6474L32.1006 32.3563L41.1892 41.3991L41.8946 40.6902L32.8059 31.6474Z" fill="#4673B6"/>
<path d="M0.705315 2.93255e-05L0 0.708923L9.08866 9.7517L9.79397 9.0428L0.705315 2.93255e-05Z" fill="#4673B6"/>
<path d="M64.0625 16.3281H58.7422V31H55.8008V16.3281H50.5273V13.9375H64.0625V16.3281ZM76.2852 23.3828H69.2773V28.6328H77.4688V31H66.3125V13.9375H77.3867V16.3281H69.2773V21.0391H76.2852V23.3828ZM88.8008 26.6055C88.8008 25.8555 88.5352 25.2773 88.0039 24.8711C87.4805 24.4648 86.5312 24.0547 85.1562 23.6406C83.7812 23.2266 82.6875 22.7656 81.875 22.2578C80.3203 21.2812 79.543 20.0078 79.543 18.4375C79.543 17.0625 80.1016 15.9297 81.2188 15.0391C82.3438 14.1484 83.8008 13.7031 85.5898 13.7031C86.7773 13.7031 87.8359 13.9219 88.7656 14.3594C89.6953 14.7969 90.4258 15.4219 90.957 16.2344C91.4883 17.0391 91.7539 17.9336 91.7539 18.918H88.8008C88.8008 18.0273 88.5195 17.332 87.957 16.832C87.4023 16.3242 86.6055 16.0703 85.5664 16.0703C84.5977 16.0703 83.8438 16.2773 83.3047 16.6914C82.7734 17.1055 82.5078 17.6836 82.5078 18.4258C82.5078 19.0508 82.7969 19.5742 83.375 19.9961C83.9531 20.4102 84.9062 20.8164 86.2344 21.2148C87.5625 21.6055 88.6289 22.0547 89.4336 22.5625C90.2383 23.0625 90.8281 23.6406 91.2031 24.2969C91.5781 24.9453 91.7656 25.707 91.7656 26.582C91.7656 28.0039 91.2188 29.1367 90.125 29.9805C89.0391 30.8164 87.5625 31.2344 85.6953 31.2344C84.4609 31.2344 83.3242 31.0078 82.2852 30.5547C81.2539 30.0938 80.4492 29.4609 79.8711 28.6562C79.3008 27.8516 79.0156 26.9141 79.0156 25.8438H81.9805C81.9805 26.8125 82.3008 27.5625 82.9414 28.0938C83.582 28.625 84.5 28.8906 85.6953 28.8906C86.7266 28.8906 87.5 28.6836 88.0156 28.2695C88.5391 27.8477 88.8008 27.293 88.8008 26.6055ZM106.695 16.3281H101.375V31H98.4336V16.3281H93.1602V13.9375H106.695V16.3281ZM121.637 25.4453C121.465 27.2656 120.793 28.6875 119.621 29.7109C118.449 30.7266 116.891 31.2344 114.945 31.2344C113.586 31.2344 112.387 30.9141 111.348 30.2734C110.316 29.625 109.52 28.707 108.957 27.5195C108.395 26.332 108.102 24.9531 108.078 23.3828V21.7891C108.078 20.1797 108.363 18.7617 108.934 17.5352C109.504 16.3086 110.32 15.3633 111.383 14.6992C112.453 14.0352 113.688 13.7031 115.086 13.7031C116.969 13.7031 118.484 14.2148 119.633 15.2383C120.781 16.2617 121.449 17.707 121.637 19.5742H118.684C118.543 18.3477 118.184 17.4648 117.605 16.9258C117.035 16.3789 116.195 16.1055 115.086 16.1055C113.797 16.1055 112.805 16.5781 112.109 17.5234C111.422 18.4609 111.07 19.8398 111.055 21.6602V23.1719C111.055 25.0156 111.383 26.4219 112.039 27.3906C112.703 28.3594 113.672 28.8438 114.945 28.8438C116.109 28.8438 116.984 28.582 117.57 28.0586C118.156 27.5352 118.527 26.6641 118.684 25.4453H121.637ZM137.914 22.9141C137.914 24.5859 137.625 26.0547 137.047 27.3203C136.469 28.5781 135.641 29.5469 134.562 30.2266C133.492 30.8984 132.258 31.2344 130.859 31.2344C129.477 31.2344 128.242 30.8984 127.156 30.2266C126.078 29.5469 125.242 28.582 124.648 27.332C124.062 26.082 123.766 24.6406 123.758 23.0078V22.0469C123.758 20.3828 124.051 18.9141 124.637 17.6406C125.23 16.3672 126.062 15.3945 127.133 14.7227C128.211 14.043 129.445 13.7031 130.836 13.7031C132.227 13.7031 133.457 14.0391 134.527 14.7109C135.605 15.375 136.438 16.3359 137.023 17.5938C137.609 18.8438 137.906 20.3008 137.914 21.9648V22.9141ZM134.949 22.0234C134.949 20.1328 134.59 18.6836 133.871 17.6758C133.16 16.668 132.148 16.1641 130.836 16.1641C129.555 16.1641 128.551 16.668 127.824 17.6758C127.105 18.6758 126.738 20.0938 126.723 21.9297V22.9141C126.723 24.7891 127.086 26.2383 127.812 27.2617C128.547 28.2852 129.562 28.7969 130.859 28.7969C132.172 28.7969 133.18 28.2969 133.883 27.2969C134.594 26.2969 134.949 24.8359 134.949 22.9141V22.0234ZM143.996 31H141.043V13.9375H143.996V31ZM161.176 31H158.211L150.605 18.8945V31H147.641V13.9375H150.605L158.234 26.0898V13.9375H161.176V31Z" fill="#4673B6"/>
</g>
<defs>
<clipPath id="clip0">
<rect width="163" height="42" fill="white"/>
</clipPath>
</defs>
</svg>
