<svg width="17" height="17" viewBox="0 0 17 17" fill="none" xmlns="http://www.w3.org/2000/svg">
<path d="M1.3493 12.402H1.34924C1.22372 12.402 1.1041 12.3531 1.01515 12.2665C0.925431 12.1792 0.875 12.0601 0.875 11.9353V5.44289C0.875 5.18234 1.08966 4.97619 1.34924 4.97619H5.01773L9.71541 1.08809L1.3493 12.402ZM1.3493 12.402L5.00682 12.4003L9.70088 16.619C9.72476 16.6405 9.75046 16.6592 9.77745 16.6749C9.9684 16.7877 10.1806 16.8446 10.3932 16.8446H10.3935M1.3493 12.402L10.3935 16.8446M10.3935 16.8446C10.5951 16.8442 10.796 16.7934 10.9803 16.6916L10.9803 16.6916M10.3935 16.8446L10.9803 16.6916M10.9803 16.6916C11.3688 16.477 11.6023 16.0829 11.6023 15.6404V2.07913C11.6023 1.63659 11.3688 1.24293 10.9804 1.02802C10.601 0.818045 10.1504 0.824793 9.77784 1.0444M10.9803 16.6916L9.77784 1.0444M9.77784 1.0444C9.75516 1.05748 9.73422 1.07247 9.71564 1.08791L9.77784 1.0444ZM10.6538 15.6404C10.6538 15.743 10.6021 15.8301 10.5163 15.8778C10.4789 15.8983 10.395 15.9324 10.297 15.8907L5.66516 11.7275V10.2264C5.66516 9.96589 5.4505 9.75974 5.19092 9.75974C4.93134 9.75974 4.71667 9.96589 4.71667 10.2264V11.467L1.82349 11.4682V5.90926H4.71667V7.15108C4.71667 7.41164 4.93134 7.61779 5.19092 7.61779C5.4505 7.61779 5.66516 7.41164 5.66516 7.15108V5.6599L10.29 1.83193C10.3919 1.78515 10.4784 1.82086 10.5162 1.84174L10.5766 1.7323L10.516 1.84164C10.602 1.88928 10.6538 1.9765 10.6538 2.07913V15.6404Z" fill="white" stroke="white" stroke-width="0.25"/>
<path d="M12.6552 4.13961L12.6552 4.13961L12.6547 4.13945C12.4059 4.07036 12.1424 4.20826 12.0689 4.45837L12.1888 4.49362L12.0689 4.45825C11.9952 4.70804 12.1429 4.96628 12.3937 5.03693C14.0489 5.50499 15.2029 7.00839 15.2029 8.68909C15.2029 10.3698 14.049 11.8731 12.3938 12.3412C12.1435 12.4118 11.9952 12.67 12.0689 12.9199L12.069 12.9201C12.1299 13.1256 12.3201 13.2566 12.5245 13.2566C12.5681 13.2566 12.6118 13.2506 12.6545 13.2388L12.6552 13.2386C14.7121 12.6566 16.151 10.7873 16.151 8.68909C16.151 6.59086 14.7121 4.72162 12.6552 4.13961Z" fill="white" stroke="white" stroke-width="0.25"/>
</svg>
