<svg width="15" height="12" viewBox="0 0 15 12" fill="none" xmlns="http://www.w3.org/2000/svg">
<path d="M14.8571 1.41979C14.3103 1.66072 13.7236 1.82412 13.1071 1.89707C13.7366 1.52226 14.2184 0.927762 14.4468 0.221549C13.8563 0.568645 13.2046 0.820681 12.5101 0.957308C11.954 0.367421 11.163 0 10.2857 0C8.60249 0 7.23775 1.35703 7.23775 3.02977C7.23775 3.26701 7.26467 3.49872 7.31667 3.72029C4.78401 3.5938 2.53822 2.38726 1.03515 0.553871C0.772403 1.00069 0.622933 1.52132 0.622933 2.07707C0.622933 3.12855 1.16141 4.05631 1.97841 4.5991C1.47892 4.58249 1.00915 4.44587 0.59788 4.21876V4.25661C0.59788 5.72442 1.64883 6.94943 3.04234 7.22823C2.78703 7.29655 2.5178 7.3344 2.23928 7.3344C2.04247 7.3344 1.85214 7.31501 1.66553 7.27808C2.05359 8.48279 3.17883 9.35885 4.51201 9.38286C3.46942 10.1952 2.1548 10.678 0.726933 10.678C0.480916 10.678 0.238589 10.6633 0 10.6365C1.34897 11.4978 2.95046 12 4.6717 12C10.2783 12 13.343 7.38241 13.343 3.37781L13.3327 2.98547C13.9315 2.5608 14.4496 2.02722 14.8571 1.41979Z" fill="#848E8C"/>
</svg>
